{"title":"Jem.and.the.Holograms.2015.WEBRip.480p.x264.AAC-VYTO [P2PDL]","uid":13151709,"size":465894587,"categoryP":"video","categoryS":"movies","magnet":"?xt=urn:btih:f54055ac1d4d69b1041f51783de804199b311923&amp;dn=Jem.and.the.Holograms.2015.WEBRip.480p.x264.AAC-VYTO+%5BP2PDL%5D&amp;tr=udp%3A%2F%2Ftracker.leechers-paradise.org%3A6969&amp;tr=udp%3A%2F%2Fzer0day.ch%3A1337&amp;tr=udp%3A%2F%2Fopen.demonii.com%3A1337&amp;tr=udp%3A%2F%2Ftracker.coppersurfer.tk%3A6969&amp;tr=udp%3A%2F%2Fexodus.desync.com%3A6969","seeders":2,"leechers":5,"uploader":"VYTOP2PDL","files":7,"time":1452066594,"description":"____    ____ ____    ____ .___________.  ______   \r\n     /   /      /   / |           | /  __    \r\n    /   /      /   /  `---|  |----`|  |  |  | \r\n        /     _    _/       |  |     |  |  |  | \r\n       /        |  |         |  |     |  `--'  | \r\n    __/         |__|         |__|      ______/  \r\n                                                  \r\nPresenting Small Encodes with quality for years!\r\n                                                                                                   \r\n                                                                                                   \r\n\r\nJem.and.the.Holograms.2015.WEBRip.480p.x264.AAC-VYTO\r\n\r\n\r\nGenre: Adventure, Drama, Fantasy \nhttp://www.imdb.com/title/tt3614530/\r\n\r\n\r\nFormat                                   : MPEG-4\r\nFile size                                : 437 MiB\r\nDuration                                 : 1h 58mn\r\nOverall bit rate                         : 513 Kbps\r\n\r\nVideo\r\nFormat                                   : AVC\r\nBit rate                                 : 478 Kbps\r\nWidth                                    : 720 pixels\r\nHeight                                   : 304 pixels\r\nDisplay aspect ratio                     : 2.35:1\r\nFrame rate mode                          : Constant\r\nFrame rate                               : 23.976 fps\r\nBit depth                                : 8 bits\r\nStream size                              : 407 MiB (93%)\r\nWriting library                          : x264\r\n\r\nAudio\r\nFormat                                   : AAC\r\nBit rate mode                            : Variable\r\nBit rate                                 : 32.0 Kbps\r\nChannel(s)                               : 2 channels\r\nChannel positions                        : Front: L R\r\nSampling rate                            : 48.0 KHz\r\nStream size                              : 27.1 MiB (6%)\r\nLanguage                                 : English\r\n\r\nSubtitle                                 : Yes (English)\r\n\r\nScreen Shot: (Click to view)\r\n \nhttp://ititli.com/iz \nhttp://ititli.com/iI \nhttp://ititli.com/iO \nhttp://ititli.com/p9 \nhttp://ititli.com/pX \nhttp://ititli.com/pq \nhttp://ititli.com/pr \nhttp://ititli.com/p1 \nhttp://ititli.com/pT \nhttp://ititli.com/pW \nhttp://ititli.com/pg \nhttp://ititli.com/pn \nhttp://ititli.com/pw \nhttp://ititli.com/p2 \nhttp://ititli.com/p6\r\n\r\n----------------------------------------------------------------------------------------------------\r\n\r\n\r\nEncoder Notes: Looking For Early Access To Anything You Can Provide WEBDL, DVDScr, DVDR, BluRay,\r\nDirect Audio, Music Releases and Seedboxes. If You Got anything to offer please contact us.\r\n\r\nSupport us by donating BC - 1FgwdzPsd1y25Gea8wP1qni35uGCtmkRCD\r\n\r\nSend some love!\r\nFind us and join us!","torrent":{"xt":"urn:btih:f54055ac1d4d69b1041f51783de804199b311923","amp;dn":"Jem.and.the.Holograms.2015.WEBRip.480p.x264.AAC-VYTO+%5BP2PDL%5D","amp;tr":["udp%3A%2F%2Ftracker.leechers-paradise.org%3A6969","udp%3A%2F%2Fzer0day.ch%3A1337","udp%3A%2F%2Fopen.demonii.com%3A1337","udp%3A%2F%2Ftracker.coppersurfer.tk%3A6969","udp%3A%2F%2Fexodus.desync.com%3A6969"],"infoHash":"f54055ac1d4d69b1041f51783de804199b311923","infoHashBuffer":{"type":"Buffer","data":[245,64,85,172,29,77,105,177,4,31,81,120,61,232,4,25,155,49,25,35]},"announce":[],"urlList":[]}}